<svg xmlns="http://www.w3.org/2000/svg" version="1.1" xmlns:xlink="http://www.w3.org/1999/xlink" xmlns:svgjs="http://svgjs.dev/svgjs" width="1000" height="1000" viewBox="0 0 1000 1000"><rect width="1000" height="1000" fill="#ffffff"></rect><g transform="matrix(0.7,0,0,0.7,149.57575757575756,386.4499022694352)"><svg viewBox="0 0 396 129" data-background-color="#ffffff" preserveAspectRatio="xMidYMid meet" height="325" width="1000" xmlns="http://www.w3.org/2000/svg" xmlns:xlink="http://www.w3.org/1999/xlink"><g id="tight-bounds" transform="matrix(1,0,0,1,0.2400000000000091,-0.11335117695446684)"><svg viewBox="0 0 395.52 129.22670235390896" height="129.22670235390896" width="395.52"><g><svg viewBox="0 0 615.1942172313369 200.99999999999997" height="129.22670235390896" width="395.52"><g><rect width="5.5557267523225935" height="200.99999999999997" x="236.2869677801937" y="0" fill="#d67320" opacity="1" stroke-width="0" stroke="transparent" fill-opacity="1" class="rect-o-0" data-fill-palette-color="primary" rx="1%" id="o-0" data-palette-color="#d67320"></rect></g><g transform="matrix(1,0,0,1,256.3864818422613,0.4999999999999858)"><svg viewBox="0 0 358.80773538907556 200" height="200" width="358.80773538907556"><g id="textblocktransform"><svg viewBox="0 0 358.80773538907556 200" height="200" width="358.80773538907556" id="textblock"><g><svg viewBox="0 0 358.80773538907556 200" height="200" width="358.80773538907556"><g transform="matrix(1,0,0,1,0,0)"><svg width="358.80773538907556" viewBox="2.909998893737793 -36.03999710083008 212.72000122070312 115.57998657226562" height="200" data-palette-color="#d67320"><svg></svg><svg></svg><svg></svg><g class="wordmark-text-0" data-fill-palette-color="primary" id="text-0"><path xmlns="http://www.w3.org/2000/svg" d="M31.47-35.55v35.55h-4.76l-17.85-27.49v27.49h-4.73v-35.55h4.73l17.92 27.57v-27.57zM62.38-3.81v3.81h-18.78v-3.81zM44.53-35.55v35.55h-4.74v-35.55zM59.89-20.26v3.8h-16.29v-3.8zM62.13-35.55v3.84h-18.53v-3.84zM71.31-35.55l8.52 13.65 8.5-13.65h5.54l-11.2 17.61 11.47 17.94h-5.59l-8.72-13.92-8.76 13.92h-5.57l11.5-17.94-11.25-17.61zM119.87-35.55h4.76v24.05c0 2.667-0.597 4.89-1.79 6.67-1.2 1.773-2.78 3.103-4.74 3.99-1.96 0.887-4.087 1.33-6.38 1.33v0c-2.407 0-4.583-0.443-6.53-1.33-1.947-0.887-3.487-2.217-4.62-3.99-1.127-1.78-1.69-4.003-1.69-6.67v0-24.05h4.68v24.05c0 1.853 0.343 3.383 1.03 4.59 0.687 1.207 1.64 2.107 2.86 2.7 1.22 0.593 2.643 0.89 4.27 0.89v0c1.64 0 3.073-0.297 4.3-0.89 1.22-0.593 2.167-1.493 2.84-2.7 0.673-1.207 1.01-2.737 1.01-4.59v0zM150.93-8.98v0c0-1.127-0.237-2.08-0.71-2.86-0.473-0.78-1.32-1.487-2.54-2.12-1.22-0.64-2.953-1.283-5.2-1.93v0c-1.76-0.507-3.343-1.08-4.75-1.72-1.407-0.647-2.613-1.383-3.62-2.21-1.013-0.833-1.787-1.787-2.32-2.86-0.54-1.073-0.81-2.303-0.81-3.69v0c0-1.853 0.5-3.51 1.5-4.97 1-1.453 2.403-2.6 4.21-3.44 1.807-0.84 3.923-1.26 6.35-1.26v0c2.687 0 4.967 0.51 6.84 1.53 1.873 1.02 3.297 2.347 4.27 3.98 0.98 1.633 1.47 3.38 1.47 5.24v0h-4.77c0-1.333-0.28-2.523-0.84-3.57-0.56-1.04-1.417-1.857-2.57-2.45-1.16-0.593-2.627-0.89-4.4-0.89v0c-1.66 0-3.03 0.25-4.11 0.75-1.087 0.507-1.89 1.193-2.41 2.06-0.52 0.86-0.78 1.843-0.78 2.95v0c0 0.993 0.287 1.877 0.86 2.65 0.567 0.773 1.46 1.47 2.68 2.09 1.22 0.613 2.8 1.197 4.74 1.75v0c2.687 0.753 4.89 1.627 6.61 2.62 1.727 0.993 3.003 2.163 3.83 3.51 0.82 1.353 1.23 2.95 1.23 4.79v0c0 1.92-0.513 3.597-1.54 5.03-1.027 1.427-2.467 2.533-4.32 3.32-1.853 0.78-4.033 1.17-6.54 1.17v0c-1.647 0-3.263-0.23-4.85-0.69-1.587-0.453-3.027-1.137-4.32-2.05-1.293-0.907-2.327-2.033-3.1-3.38-0.773-1.34-1.16-2.897-1.16-4.67v0h4.73c0 1.22 0.237 2.27 0.71 3.15 0.473 0.88 1.117 1.603 1.93 2.17 0.813 0.567 1.74 0.987 2.78 1.26 1.047 0.267 2.14 0.4 3.28 0.4v0c1.64 0 3.027-0.233 4.16-0.7 1.133-0.46 1.997-1.113 2.59-1.96 0.593-0.847 0.89-1.847 0.89-3z" fill="#d67320" fill-rule="nonzero" stroke="none" stroke-width="1" stroke-linecap="butt" stroke-linejoin="miter" stroke-miterlimit="10" stroke-dasharray="" stroke-dashoffset="0" font-family="none" font-weight="none" font-size="none" text-anchor="none" style="mix-blend-mode: normal" data-fill-palette-color="primary" opacity="1"></path><path xmlns="http://www.w3.org/2000/svg" d="M25.56 28.24h4.74c-0.247 2.233-0.89 4.24-1.93 6.02-1.04 1.78-2.513 3.183-4.42 4.21-1.907 1.027-4.29 1.54-7.15 1.54v0c-2.787 0-5.22-0.68-7.3-2.04-2.087-1.36-3.707-3.277-4.86-5.75-1.153-2.473-1.73-5.363-1.73-8.67v0-3.59c0-3.32 0.58-6.21 1.74-8.67 1.167-2.467 2.823-4.383 4.97-5.75 2.147-1.373 4.687-2.06 7.62-2.06v0c2.68 0 4.95 0.503 6.81 1.51 1.853 1 3.297 2.393 4.33 4.18 1.033 1.793 1.673 3.86 1.92 6.2v0h-4.74c-0.36-2.487-1.153-4.45-2.38-5.89-1.227-1.44-3.207-2.16-5.94-2.16v0c-2.1 0-3.86 0.523-5.28 1.57-1.413 1.053-2.483 2.523-3.21 4.41-0.72 1.887-1.08 4.093-1.08 6.62v0 3.63c0 2.327 0.323 4.447 0.97 6.36 0.653 1.913 1.65 3.44 2.99 4.58 1.347 1.14 3.07 1.71 5.17 1.71v0c2 0 3.59-0.317 4.77-0.95 1.18-0.633 2.077-1.547 2.69-2.74 0.607-1.187 1.04-2.61 1.3-4.27zM49.85 7.1l-11.74 32.42h-4.88l13.57-35.55h3.13zM59.69 39.52l-11.79-32.42-0.05-3.13h3.1l13.6 35.55zM59.11 26.39v3.83h-20v-3.83zM69.34 3.97h11.76c2.673 0 4.937 0.407 6.79 1.22 1.853 0.813 3.267 2.013 4.24 3.6 0.967 1.593 1.45 3.543 1.45 5.85v0c0 1.627-0.33 3.11-0.99 4.45-0.66 1.333-1.607 2.47-2.84 3.41-1.24 0.947-2.713 1.647-4.42 2.1v0l-1.32 0.52h-11.04l-0.05-3.81h8.31c1.687 0 3.093-0.303 4.22-0.91 1.12-0.6 1.963-1.403 2.53-2.41 0.56-1.013 0.84-2.13 0.84-3.35v0c0-2.067-0.61-3.723-1.83-4.97-1.22-1.24-3.183-1.86-5.89-1.86v0h-7.03v31.71h-4.73zM90.06 39.52l-8.61-16.11h4.95l8.74 15.82v0.29z" fill="#d67320" fill-rule="nonzero" stroke="none" stroke-width="1" stroke-linecap="butt" stroke-linejoin="miter" stroke-miterlimit="10" stroke-dasharray="" stroke-dashoffset="0" font-family="none" font-weight="none" font-size="none" text-anchor="none" style="mix-blend-mode: normal" data-fill-palette-color="primary" opacity="1"></path><path xmlns="http://www.w3.org/2000/svg" d="M25.56 67.77h4.74c-0.247 2.233-0.89 4.24-1.93 6.02-1.04 1.78-2.513 3.183-4.42 4.21-1.907 1.027-4.29 1.54-7.15 1.54v0c-2.787 0-5.22-0.68-7.3-2.04-2.087-1.36-3.707-3.277-4.86-5.75-1.153-2.473-1.73-5.363-1.73-8.67v0-3.59c0-3.32 0.58-6.21 1.74-8.67 1.167-2.467 2.823-4.383 4.97-5.75 2.147-1.373 4.687-2.06 7.62-2.06v0c2.68 0 4.95 0.503 6.81 1.51 1.853 1 3.297 2.393 4.33 4.18 1.033 1.793 1.673 3.86 1.92 6.2v0h-4.74c-0.36-2.487-1.153-4.45-2.38-5.89-1.227-1.44-3.207-2.16-5.94-2.16v0c-2.1 0-3.86 0.523-5.28 1.57-1.413 1.053-2.483 2.523-3.21 4.41-0.72 1.887-1.08 4.093-1.08 6.62v0 3.63c0 2.327 0.323 4.447 0.97 6.36 0.653 1.913 1.65 3.44 2.99 4.58 1.347 1.14 3.07 1.71 5.17 1.71v0c2 0 3.59-0.317 4.77-0.95 1.18-0.633 2.077-1.547 2.69-2.74 0.607-1.187 1.04-2.61 1.3-4.27zM59.25 75.24v3.81h-18.77v-3.81zM41.41 43.5v35.55h-4.74v-35.55zM56.76 58.79v3.8h-16.28v-3.8zM59.01 43.5v3.84h-18.53v-3.84zM92.43 43.5v35.55h-4.76l-17.85-27.49v27.49h-4.73v-35.55h4.73l17.92 27.57v-27.57zM113.92 43.5v35.55h-4.69v-35.55zM125.32 43.5v3.84h-27.47v-3.84zM130.59 43.5h11.77c2.667 0 4.93 0.407 6.79 1.22 1.853 0.813 3.263 2.013 4.23 3.6 0.967 1.593 1.45 3.543 1.45 5.85v0c0 1.627-0.327 3.11-0.98 4.45-0.66 1.333-1.61 2.47-2.85 3.41-1.233 0.947-2.707 1.647-4.42 2.1v0l-1.32 0.52h-11.03l-0.05-3.81h8.3c1.693 0 3.1-0.303 4.22-0.91 1.127-0.6 1.97-1.403 2.53-2.41 0.56-1.013 0.84-2.13 0.84-3.35v0c0-2.067-0.61-3.723-1.83-4.97-1.22-1.24-3.18-1.86-5.88-1.86v0h-7.03v31.71h-4.74zM151.32 79.05l-8.62-16.11h4.96l8.74 15.82v0.29zM174.56 46.63l-11.74 32.42h-4.89l13.58-35.55h3.12zM184.4 79.05l-11.79-32.42-0.05-3.13h3.1l13.6 35.55zM183.81 65.92v3.83h-19.99v-3.83zM215.63 75.24v3.81h-17.78v-3.81zM198.78 43.5v35.55h-4.74v-35.55z" fill="#d67320" fill-rule="nonzero" stroke="none" stroke-width="1" stroke-linecap="butt" stroke-linejoin="miter" stroke-miterlimit="10" stroke-dasharray="" stroke-dashoffset="0" font-family="none" font-weight="none" font-size="none" text-anchor="none" style="mix-blend-mode: normal" data-fill-palette-color="primary" opacity="1"></path></g></svg></g></svg></g></svg></g></svg></g><g transform="matrix(1,0,0,1,0,9.585296007116014)"><svg viewBox="0 0 221.7431804704487 181.82940798576794" height="181.82940798576794" width="221.7431804704487"><g><svg xmlns="http://www.w3.org/2000/svg" xmlns:xlink="http://www.w3.org/1999/xlink" version="1.1" x="0" y="0" viewBox="0 18 100 82" enable-background="new 0 0 100 100" xml:space="preserve" height="181.82940798576794" width="221.7431804704487" class="icon-icon-0" data-fill-palette-color="accent" id="icon-0"><path fill="#ba3b0a" d="M100 45.5c0-3.025-2.475-5.5-5.5-5.5h-6.577l-4.769-12.4c-1.185-3.08-4.75-6.342-7.924-7.249C75.23 20.352 67 18 50 18s-25.231 2.352-25.231 2.352c-3.173 0.907-6.738 4.168-7.923 7.249L12.077 40H5.5C2.475 40 0 42.475 0 45.5S2.475 51 5.5 51h2.346l-1.692 4.4C4.969 58.479 4 63.7 4 67v26c0 3.85 3.15 7 7 7s7-3.15 7-7v-4h64v4c0 3.85 3.15 7 7 7s7-3.15 7-7V67c0-3.3-0.97-8.521-2.154-11.6L92.153 51H94.5C97.525 51 100 48.525 100 45.5zM17.691 47.124l5.617-15.247C23.689 30.845 24.9 30 26 30h48c1.1 0 2.312 0.845 2.691 1.876l5.617 15.247C82.688 48.155 82.1 49 81 49H19C17.9 49 17.311 48.155 17.691 47.124zM17.5 72c-3.038 0-5.5-2.465-5.5-5.5s2.462-5.5 5.5-5.5c3.037 0 5.5 2.465 5.5 5.5S20.537 72 17.5 72zM82.5 72c-3.038 0-5.5-2.462-5.5-5.5s2.462-5.5 5.5-5.5 5.5 2.462 5.5 5.5S85.538 72 82.5 72z" data-fill-palette-color="accent"></path></svg></g></svg></g></svg></g><defs></defs></svg><rect width="395.52" height="129.22670235390896" fill="none" stroke="none" visibility="hidden"></rect></g></svg></g></svg>